<?xml version="1.0" encoding="utf-8"?>
<!-- Svg Vector Icons : http://www.onlinewebfonts.com/icon -->
<!DOCTYPE svg PUBLIC "-//W3C//DTD SVG 1.1//EN" "http://www.w3.org/Graphics/SVG/1.1/DTD/svg11.dtd">
<svg version="1.1" xmlns="http://www.w3.org/2000/svg" xmlns:xlink="http://www.w3.org/1999/xlink" x="0px" y="0px" viewBox="0 0 1000 1000" enable-background="new 0 0 1000 1000" xml:space="preserve">
<metadata> Svg Vector Icons : http://www.onlinewebfonts.com/icon </metadata>
<g><g transform="translate(0.000000,511.000000) scale(0.100000,-0.100000)"><path d="M2842.8,4660.4c-306.3-59.3-593.4-185.7-802-352.2c-135.9-109.1-296.7-327.3-352.2-478.5c-103.4-273.7-101.4-264.2-114.8-1219.3c-5.7-493.8-17.2-913-24.9-932.2c-26.8-55.5-375.2-310.1-710.1-520.6l-172.3-107.2h248.8l246.9-1.9l-67-59.3c-36.4-30.6-132.1-99.5-210.5-151.2c-78.5-49.8-158.9-103.3-178-116.8c-32.5-23-28.7-34.4,65.1-178C919.2,315.5,1101,149,1311.6,45.6c166.5-80.4,172.3-86.1,122.5-103.4c-28.7-11.5-210.5-97.6-402-191.4C737.4-390.8,668.5-432.9,603.4-507.5c-162.7-185.7-308.2-547.4-400-1001.1c-49.8-248.8-103.4-691-103.4-861.3v-101.4h1753.3h1753.3l-86.1-95.7c-258.4-287.1-478.5-997.2-522.5-1680.5l-13.4-214.4h3458.7H9900v91.9c0,157-55.5,576.1-107.2,805.8c-99.5,447.9-254.6,809.6-426.9,1001.1c-103.3,114.8-227.8,179.9-809.6,413.4c-206.7,84.2-488.1,202.9-624,262.2c-229.7,101.4-252.7,116.8-281.4,181.8c-17.2,40.2-88,126.3-155,193.3l-122.5,120.6v139.7c0,130.1,5.7,149.3,91.9,298.6c49.8,86.1,111,222,135.9,300.5c40.2,124.4,65.1,164.6,191.4,300.5c158.9,170.3,246.9,304.3,323.5,488.1c38.3,95.7,49.8,153.1,49.8,283.3c0,197.1-36.4,298.6-120.6,331.1l-57.4,21.1l-5.7,497.7c-5.7,528.3-15.3,587.6-109.1,691c-21,21.1-42.1,68.9-49.8,105.3c-38.3,183.8-204.8,386.6-407.7,493.8c-440.2,235.4-1267.1,258.4-1739.9,49.8c-323.5-143.6-568.5-409.6-685.2-748.4c-24.9-67-47.9-126.3-51.7-132.1c-24.9-23-141.6,300.5-201,557c-63.2,269.9-68.9,315.8-82.3,756.1c-13.4,394.3-21.1,491.9-57.4,612.5c-116.8,407.7-340.7,666.1-736.9,853.7C3539.6,4658.5,3145.3,4717.8,2842.8,4660.4z M3478.3,4486.2c164.6-44,403.9-168.4,528.3-273.7c317.7-269.9,488.1-606.8,509.1-1008.7c11.5-206.7-7.7-225.9-51.7-47.9c-176.1,723.5-968.5,1181-1713.1,985.7c-474.7-124.4-884.3-537.9-993.4-1003c-15.3-67-32.5-126.3-38.3-132.1c-23-21.1-9.6,277.5,15.3,398.1c59.3,279.5,179.9,503.4,373.2,698.6c204.8,208.6,453.6,346.4,727.3,403.9C2992.1,4539.8,3319.5,4530.3,3478.3,4486.2z M3970.2,2522.4c101.4-59.3,111-70.8,122.5-145.5c15.3-105.3-5.7-409.6-42.1-616.3c-97.6-537.9-359.8-980-673.7-1135c-111-55.5-147.4-63.2-271.8-63.2c-126.3,0-157,7.6-264.1,65.1c-281.4,151.2-509.1,505.3-625.9,966.6l-44,174.2l95.7,137.8c111,160.8,245,292.9,359.8,350.3c44,23,179.9,74.6,300.5,116.8c222,76.6,356,137.8,488.1,220.1c40.2,24.9,76.6,45.9,82.3,45.9s9.6-42.1,9.6-91.9c0-202.9,95.7-434.5,248.8-599.1l78.5-84.2l-47.9,76.6c-78.5,126.3-128.2,292.8-139.7,474.7c-11.5,164.6-9.6,170.4,44,225.9l53.6,55.5l57.4-55.5C3834.3,2612.4,3910.9,2558.8,3970.2,2522.4z M4337.7,1641.9c118.7-55.5,135.9-252.6,30.6-346.4c-63.2-59.3-126.3-67-181.8-26.8c-34.4,24.9-34.4,28.7,7.7,176.1c23,84.2,47.9,166.5,53.6,185.7C4257.3,1668.7,4272.7,1670.6,4337.7,1641.9z M7333.3,1500.3c88-80.4,202.9-294.8,287.1-532.1c55.5-157,59.3-189.5,59.3-421.1V296.4l101.4,99.5c55.5,55.5,107.2,99.5,116.8,99.5c26.8,0-3.8-199.1-45.9-298.6c-53.6-124.4-185.7-306.3-323.5-442.1c-101.4-101.4-118.7-132.1-174.2-294.8c-107.2-321.6-294.8-574.2-516.8-694.8c-518.7-283.3-1075.7,15.3-1301.6,694.8c-55.5,160.8-72.7,193.3-170.4,289c-132.1,130.2-273.7,323.5-327.3,447.9c-42.1,99.5-72.7,298.6-45.9,298.6c9.6,0,61.3-44,116.8-99.5l101.4-99.5v239.3c0,218.2,3.8,245,38.3,275.6c42.1,38.3,86.1,170.3,107.2,321.6c5.8,49.8,17.2,90,24.9,86.1c5.7-3.8,76.6-38.3,155-76.6c258.4-126.3,656.5-202.9,966.6-183.7c308.2,21,467,143.6,562.7,440.2c32.5,99.5,91.9,168.4,147.4,168.4C7237.5,1567.3,7291.1,1538.6,7333.3,1500.3z M2042.8,1268.7c-49.8-36.4-111-34.4-164.6,7.7l-42.1,36.4l84.2,105.3l84.2,105.3l38.3-112.9C2079.1,1297.4,2079.1,1295.5,2042.8,1268.7z M3861.1,177.7c-42.1-179.9-132.1-342.6-268-478.5C3298.4-597.5,2957.7-609,2684-327.6c-109.1,111-220.1,317.7-258.4,480.4c-17.2,72.7-28.7,214.4-28.7,350.3v227.8l93.8-88c191.4-179.9,417.3-281.4,624-281.4c225.9,0,499.6,135.9,675.7,336.9l90,101.4l5.7-246.9C3889.8,380.6,3882.2,265.7,3861.1,177.7z M4862.2-52c13.4-26.8,15.3-44,7.7-38.3c-9.6,5.8-42.1,19.1-72.7,30.6c-44,17.2-47.9,24.9-26.8,38.3C4816.2,9.2,4839.2,1.6,4862.2-52z M1918.4-279.8c49.8-239.3,252.7-660.4,317.7-660.4c111,0,455.5,162.7,574.2,271.8c40.2,36.4,45.9,36.4,143.6,7.6c124.4-38.3,214.4-38.3,331.1-3.8l91.9,28.7l95.7-74.6c151.2-112.9,413.4-227.8,526.4-229.7c59.3,0,250.7,400,312,650.8c19.1,78.5,42.1,141.6,49.8,139.7c9.6-1.9,214.4-97.6,455.5-212.5l438.3-208.6l59.3-151.2c32.5-82.3,91.9-204.8,132.1-268c65.1-107.2,70.8-130.1,70.8-258.4v-137.8l-134-139.7c-74.7-76.6-143.6-164.6-155-195.2c-17.2-47.9-53.6-70.8-289-174.2c-149.3-65.1-377.1-162.7-507.2-214.4l-235.4-93.8H2283.9H371.8l9.6,120.6c30.6,367.5,141.6,857.5,256.5,1135c95.7,227.8,166.5,290.9,501.5,451.7c158.9,76.6,388.6,187.6,511.1,246.9c120.6,59.3,225.9,103.4,231.6,95.7C1887.7-159.2,1905-216.6,1918.4-279.8z M6129.3-1545c76.6-26.8,162.7-36.4,315.8-36.4c235.4,0,336.9,26.8,541.7,135.9l118.7,65.1v-91.9c0-201-84.2-411.5-223.9-560.8c-246.9-264.1-625.9-264.1-872.8,0c-143.6,153.1-223.9,356-223.9,566.6v86.1l120.6-65.1C5970.4-1481.8,6071.9-1525.8,6129.3-1545z M5239.3-2178.5c19.1-164.6,80.4-513,116.7-675.7l32.5-141.7l49.8,65.1c158.9,210.5,388.5,396.2,580,468.9c82.3,30.6,97.6,30.6,210.5,1.9c155-38.3,277.5-38.3,432.6,0c112.9,28.7,128.2,28.7,210.5-3.8c191.4-70.8,417.3-248.8,553.2-432.6c36.4-51.7,70.8-90,74.6-86.1c15.3,15.3,103.4,461.3,132.1,673.7c17.2,126.3,34.5,231.6,38.3,235.4c1.9,1.9,86.1-30.6,183.7-74.7c99.5-42.1,359.9-151.2,578.1-241.2c589.5-237.3,662.3-275.6,752.2-373.2c181.8-197.1,369.4-765.6,424.9-1286.2l15.3-145.5H6441.3H3258.2l7.7,42.1c5.7,24.9,15.3,95.7,21.1,158.9c34.4,317.7,157,763.7,279.5,1014.5c134,275.6,160.8,292.8,892,591.4c218.2,88.1,476.6,195.2,570.4,237.4c95.7,44,178,78.5,185.7,78.5C5222-2069.4,5233.5-2119.2,5239.3-2178.5z"/></g></g>
</svg>